<svg id="Capa_1" enable-background="new 0 0 510 510" height="512" viewBox="0 0 510 510" width="512" xmlns="http://www.w3.org/2000/svg"><g><path d="m354 15c0-8.284-6.716-15-15-15-92.028 0-175.757 58.947-239.831 124.517-59.164 60.544-95.489 120.213-97.006 122.724-2.883 4.771-2.883 10.747 0 15.518 1.518 2.511 37.842 62.181 97.007 122.725 64.424 65.928 148.084 124.516 239.83 124.516 8.284 0 15-6.716 15-15s-6.716-15-15-15c-20.47 0-40.524-3.462-59.895-9.438 94.54-118.432 94.513-312.725 0-431.124 19.371-5.976 39.425-9.438 59.895-9.438 8.284 0 15-6.716 15-15zm-104.566 444.31c-85.729-38.47-165.83-126.38-216.661-204.31 50.95-78.115 131.055-165.895 216.661-204.31 6.8 7.859 13.164 16.209 19.057 25.009-126.12 85.072-126.09 273.55 0 358.603-5.893 8.799-12.257 17.149-19.057 25.008zm34.385-357.731c48.244 92.342 48.27 214.449 0 306.842-106.518-73.36-106.621-233.41 0-306.842z"/><path d="m246.717 195.71c-6.235 5.454-6.869 14.931-1.415 21.166 14.193 16.224 14.361 43.831 0 60.248-5.454 6.235-4.821 15.712 1.415 21.166 6.235 5.454 15.712 4.821 21.166-1.414 24.17-27.632 24.177-72.113 0-99.752-5.454-6.236-14.93-6.868-21.166-1.414z"/><path d="m495 240h-96c-8.284 0-15 6.716-15 15s6.716 15 15 15h96c8.284 0 15-6.716 15-15s-6.716-15-15-15z"/><path d="m399 206c3.838 0 7.678-1.465 10.606-4.394l67.882-67.882c5.858-5.857 5.858-15.355 0-21.213-5.857-5.859-15.355-5.857-21.213 0l-67.882 67.882c-9.478 9.478-2.635 25.607 10.607 25.607z"/><path d="m409.606 308.394c-5.857-5.857-15.355-5.857-21.213 0s-5.858 15.355 0 21.213l67.882 67.882c2.929 2.929 6.768 4.394 10.606 4.394 13.243 0 20.084-16.13 10.606-25.606z"/></g></svg>