<?xml version="1.0"?>
<svg xmlns="http://www.w3.org/2000/svg" width="512" height="512" viewBox="0 0 512 512"><g><g><path d="M336,416a80,80,0,0,1-81.938,79.977c-43.35-1.025-78.3-37.074-78.061-80.436a79.962,79.962,0,0,1,40-68.831V56a40,40,0,0,1,40-40h0a40,40,0,0,1,40,40V346.71A79.959,79.959,0,0,1,336,416Z" fill="#e0e0e2"/><circle cx="256" cy="416" r="40" fill="#d80027"/></g><g><path d="M304,342.24V56a48,48,0,0,0-96,0V342.24a88.428,88.428,0,0,0-40,73.26c-.27,47.66,38.26,87.35,85.87,88.48.72.01,1.44.02,2.15.02A88,88,0,0,0,344,416,88.328,88.328,0,0,0,304,342.24Zm2.3,125.27a71.406,71.406,0,0,1-52.05,20.47c-38.95-.92-70.47-33.4-70.25-72.39a72.329,72.329,0,0,1,36.01-61.96,7.975,7.975,0,0,0,3.99-6.92V56a32,32,0,0,1,64,0V80h-8a8,8,0,0,0,0,16h8v16h-8a8,8,0,0,0,0,16h8v16h-8a8,8,0,0,0,0,16h8v16h-8a8,8,0,0,0,0,16h8v16h-8a8,8,0,0,0,0,16h8v16h-8a8,8,0,0,0,0,16h8v16h-8a8,8,0,0,0,0,16h8v16h-8a8,8,0,0,0,0,16h8v26.71a7.975,7.975,0,0,0,3.99,6.92A72.288,72.288,0,0,1,328,416,71.452,71.452,0,0,1,306.3,467.51Z"/><path d="M264,368.68V56a8,8,0,0,0-16,0V368.68a48,48,0,1,0,16,0ZM256,448a32,32,0,1,1,32-32A32.042,32.042,0,0,1,256,448Z"/></g></g></svg>
