<svg id="Capa_1" enable-background="new 0 0 497.055 497.055" height="512" viewBox="0 0 497.055 497.055" width="512" xmlns="http://www.w3.org/2000/svg"><g><path d="m491.329 191.257-476.73-154.77v332.42l22.86-15.05 453.87-147.85c7.14-2.33 7.14-12.42 0-14.75z" fill="#f7f2f0"/><path d="m491.329 191.257-40.646-13.24-328.488 107.007c-31.941 10.405-64.732-13.401-64.732-46.993v-188.098l-20.003-6.516-18.543-5.622-4.317-1.309v332.42l22.86-15.05 453.87-147.85c7.139-2.329 7.139-12.419-.001-14.749z" fill="#f1e9e6"/><g fill="#ee6161"><path d="m122.11 326.282 118.298-38.536v-177.95l-118.298-38.405z"/><path d="m240.408 246.515-118.214 38.509c-.028.009-.056.016-.084.025v41.233l10.523-3.428 107.775-35.108z"/><path d="m334.277 257.168 81.711-26.618v-63.752l-81.711-26.528z"/><path d="m334.277 257.168 81.711-26.618v-41.23l-81.711 26.617z"/></g><path d="m37.463 491.117v-472.571c0-10.243-8.304-18.546-18.547-18.546-10.242 0-18.546 8.303-18.546 18.546v472.571c0 3.279 2.658 5.938 5.938 5.938h25.217c3.279 0 5.938-2.659 5.938-5.938z" fill="#c7bec6"/><g><path d="m388.725 65.678h-190.268c-4.142 0-7.5-3.357-7.5-7.5s3.358-7.5 7.5-7.5h190.268c6.748 0 12.237-5.489 12.237-12.237s-5.49-12.237-12.237-12.237h-18.415c-4.142 0-7.5-3.357-7.5-7.5s3.358-7.5 7.5-7.5h18.416c15.019 0 27.237 12.219 27.237 27.237s-12.219 27.237-27.238 27.237z" fill="#85d6e4"/></g><g><path d="m437.478 111.978h-68.137c-4.142 0-7.5-3.357-7.5-7.5s3.358-7.5 7.5-7.5h68.137c4.142 0 7.5 3.357 7.5 7.5s-3.357 7.5-7.5 7.5z" fill="#85d6e4"/></g><g><path d="m475.264 111.978h-7.433c-4.142 0-7.5-3.357-7.5-7.5s3.358-7.5 7.5-7.5h7.433c4.142 0 7.5 3.357 7.5 7.5s-3.358 7.5-7.5 7.5z" fill="#85d6e4"/></g><g><path d="m389.026 376.407h-221.693c-4.142 0-7.5-3.357-7.5-7.5s3.358-7.5 7.5-7.5h221.693c6.596 0 11.962-5.365 11.962-11.961s-5.366-11.962-11.962-11.962h-12.692c-4.142 0-7.5-3.357-7.5-7.5s3.358-7.5 7.5-7.5h12.692c14.867 0 26.962 12.095 26.962 26.962 0 14.866-12.095 26.961-26.962 26.961z" fill="#85d6e4"/></g><g><path d="m288.18 461.023h-12.692c-4.142 0-7.5-3.357-7.5-7.5s3.358-7.5 7.5-7.5h12.692c6.596 0 11.962-5.366 11.962-11.962s-5.366-11.961-11.962-11.961h-175.848c-4.142 0-7.5-3.357-7.5-7.5s3.358-7.5 7.5-7.5h175.848c14.867 0 26.962 12.095 26.962 26.961 0 14.868-12.096 26.962-26.962 26.962z" fill="#85d6e4"/></g></g></svg>